Format : AVI
Format/Info : Audio Video Interleave
File size : 1.39 GiB
Duration : 1h 56mn
Overall bit rate : 1 705 Kbps
Writing library : VirtualDub build 32839/release

Video
ID : 0
Format : MPEG-4 Visual
Format profile : Advanced Simple@L5
Format settings, BVOP : Yes
Format settings, QPel : No
Format settings, GMC : No warppoints
Format settings, Matrix : Custom
Codec ID : XVID
Codec ID/Hint : XviD
Duration : 1h 56mn
Bit rate : 1 564 Kbps
Width : 720 pixels
Height : 400 pixels
Display aspect ratio : 16:9
Frame rate : 29.970 fps
Color space : YUV
Chroma subsampling : 4:2:0
Bit depth : 8 bits
Scan type : Progressive
Bits/(Pixel*Frame) : 0.181
Stream size : 1.27 GiB (92%)
Writing library : XviD 1.2.1 (UTC 2008-12-04)

Audio
ID : 1
Format : MPEG Audio
Format version : Version 1
Format profile : Layer 3
Mode : Joint stereo
Mode extension : MS Stereo
Codec ID : 55
Codec ID/Hint : MP3
Duration : 1h 56mn
Bit rate mode : Constant
Bit rate : 128 Kbps
Channel(s) : 2 channels
Sampling rate : 44.1 KHz
Stream size : 107 MiB (8%)
Alignment : Aligned on interleaves
Interleave, duration : 26 ms (0.78 video frame)
Interleave, preload duration : 522 ms
Writing library : LAME3.98.2



 
http://www.imdb.com/title/tt1555064/







Storyline

A drama centered on a rising country-music songwriter (Hedlund) who sparks with a fallen star (Paltrow). Together, they mount his ascent and her comeback, which leads to romantic complications involving her husband/manager (McGraw) and a beauty queen-turned-singer (Meester).

Users: 5.4/10 (1,295 votes) 38 reviews | Critics: 77 reviews Metascore: 44/100 (based on 29 reviews from Metacritic.com)


Director:
Shana Feste
Writer:
Shana Feste
Stars:
Garrett Hedlund, Gwyneth Paltrow and Leighton Meester


Source used

IFLIX PPV ................... Thanks

Few filters nothing special ive never even heard of this one but been asked to do it so heres my take on it

Enjoy !




Greetz to Imagine ,Flawl3ss ,Santi ,Vision ,Kingdom, BDK, TOXiCiNK, THC, Ez, Rx,

